<?xml version="1.0" standalone="no"?>
<!DOCTYPE svg PUBLIC "-//W3C//DTD SVG 20010904//EN"
 "http://www.w3.org/TR/2001/REC-SVG-20010904/DTD/svg10.dtd">
<svg version="1.0" xmlns="http://www.w3.org/2000/svg"
 width="700.000000pt" height="700.000000pt" viewBox="0 0 700.000000 700.000000"
 preserveAspectRatio="xMidYMid meet">
<metadata>
Created by potrace 1.14, written by Peter Selinger 2001-2017
</metadata>
<g transform="translate(0.000000,700.000000) scale(0.100000,-0.100000)"
fill="#000000" stroke="none">
<path d="M0 3500 l0 -3500 3500 0 3500 0 0 3500 0 3500 -3500 0 -3500 0 0
-3500z m3940 1400 l0 -570 -1020 0 c-1133 0 -1067 4 -1096 -66 -22 -53 -2
-107 51 -137 14 -8 156 -14 465 -18 486 -6 532 -11 720 -71 593 -190 924 -680
871 -1292 -51 -596 -411 -1029 -971 -1170 -174 -44 -241 -46 -1410 -46 l-1110
0 0 570 0 570 1030 0 c1134 0 1074 -3 1124 62 47 63 27 149 -46 193 -31 19
-56 20 -468 26 -396 5 -444 8 -535 27 -138 30 -242 65 -361 122 -144 68 -245
139 -354 249 -96 97 -256 313 -245 331 3 6 -5 43 -18 82 -54 160 -62 219 -62
438 0 189 3 213 28 313 54 217 143 381 290 534 216 227 518 376 832 411 44 5
576 10 1183 11 l1102 1 0 -570z m1090 -10 l0 -580 -435 0 -435 0 0 580 0 580
435 0 435 0 0 -580z m1570 350 l0 -229 -127 -3 -128 -3 -3 -347 -2 -348 -435
0 -435 0 0 350 0 350 -165 0 -165 0 0 230 0 230 730 0 730 0 0 -230z m-1351
-1769 l216 -724 3 726 2 727 435 0 435 0 0 -1335 0 -1335 -436 2 -437 3 -216
755 -216 755 -3 -757 -2 -758 -435 0 -435 0 0 1335 0 1335 436 -2 437 -3 216
-724z"/>
<path d="M1665 5239 c-365 -47 -695 -270 -846 -574 -67 -136 -90 -235 -96
-420 -3 -97 -1 -189 6 -233 70 -448 410 -747 946 -833 39 -6 257 -14 485 -18
l415 -6 57 -28 c118 -58 199 -176 206 -300 5 -85 -9 -137 -56 -207 -48 -70
-121 -125 -201 -150 -61 -19 -94 -20 -992 -20 l-929 0 0 -350 0 -351 1058 4
c1029 3 1059 4 1147 24 316 73 547 235 701 493 88 148 137 324 150 535 11 177
-17 340 -82 483 -116 257 -333 441 -634 541 -151 49 -190 53 -675 60 -445 7
-462 8 -517 30 -82 32 -161 107 -187 177 -28 73 -28 175 -1 248 12 30 27 60
35 66 8 7 15 20 15 29 0 18 180 124 192 113 4 -4 423 -6 932 -4 l926 2 0 350
0 350 -992 -1 c-546 -1 -1024 -6 -1063 -10z"/>
</g>
</svg>
