<?xml version="1.0" standalone="no"?>
<!DOCTYPE svg PUBLIC "-//W3C//DTD SVG 20010904//EN"
 "http://www.w3.org/TR/2001/REC-SVG-20010904/DTD/svg10.dtd">
<svg version="1.0" xmlns="http://www.w3.org/2000/svg"
 width="700.000000pt" height="700.000000pt" viewBox="0 0 700.000000 700.000000"
 preserveAspectRatio="xMidYMid meet">
<metadata>
Created by potrace 1.14, written by Peter Selinger 2001-2017
</metadata>
<g transform="translate(0.000000,700.000000) scale(0.100000,-0.100000)"
fill="#000000" stroke="none">
<path d="M3369 6507 c-1 -18 -2 -65 -3 -106 l-1 -74 80 -4 c44 -2 96 -5 115
-7 19 -3 50 -5 68 -5 l33 -1 -6 -87 c-3 -49 -8 -115 -10 -148 -5 -72 -16 -261
-20 -330 -8 -144 -17 -283 -20 -302 -3 -16 1 -23 13 -24 9 0 67 -2 128 -5
l112 -6 -1 29 c0 15 3 75 7 133 4 58 9 143 12 190 3 47 7 105 9 130 2 25 7
101 10 170 8 189 16 246 33 236 4 -2 63 -7 131 -10 69 -4 128 -9 132 -12 15
-9 20 16 26 116 l6 100 -59 1 c-33 0 -70 2 -84 4 -14 1 -79 6 -145 9 -66 4
-145 9 -175 11 -30 1 -111 6 -180 10 -69 3 -144 8 -167 10 -42 4 -43 4 -44
-28z"/>
<path d="M2746 6409 c-60 -16 -111 -30 -112 -32 -3 -2 40 -168 147 -572 27
-104 52 -197 54 -206 21 -92 70 -266 76 -273 8 -9 150 21 216 45 l21 8 -33
128 c-42 163 -96 367 -147 558 -22 83 -41 158 -43 167 -5 23 -35 136 -47 176
-5 17 -13 32 -16 31 -4 0 -56 -14 -116 -30z"/>
<path d="M5300 6041 c-5 -11 -16 -25 -23 -33 -35 -37 -632 -791 -634 -801 -2
-11 151 -138 173 -143 5 -2 61 63 124 143 63 80 121 152 128 159 7 7 60 84
118 171 58 87 103 147 100 133 -2 -14 -16 -70 -31 -125 -14 -55 -28 -111 -31
-125 -2 -14 -9 -45 -14 -70 -5 -25 -12 -58 -15 -74 -2 -16 -9 -52 -14 -80 -6
-28 -13 -63 -16 -78 -3 -16 -7 -40 -10 -55 -3 -16 -10 -50 -15 -78 -11 -54
-17 -83 -26 -131 -5 -27 -1 -34 32 -60 20 -16 64 -50 97 -76 33 -27 62 -48 66
-48 3 1 65 75 136 167 72 91 135 170 140 177 6 6 100 123 209 260 l199 250
-39 34 c-83 72 -145 115 -153 106 -4 -5 -34 -43 -67 -84 -32 -41 -65 -81 -71
-90 -101 -125 -139 -177 -220 -298 -53 -78 -99 -145 -103 -147 -4 -2 6 42 22
98 23 82 71 302 101 467 3 14 12 63 21 110 9 47 19 101 22 120 3 19 7 42 10
51 3 10 -8 25 -28 40 -40 30 -91 72 -98 79 -9 10 -68 50 -74 50 -3 0 -10 -9
-16 -19z"/>
<path d="M1740 5621 c-248 -81 -346 -360 -211 -597 38 -65 129 -154 194 -190
214 -116 469 -20 589 222 22 46 38 89 35 96 -2 7 -38 25 -80 40 l-75 26 -17
-45 c-10 -25 -40 -67 -69 -97 -54 -54 -104 -76 -167 -76 -37 0 -119 33 -119
48 0 5 44 47 97 93 54 46 111 96 128 110 16 15 55 48 85 73 30 26 55 51 55 56
0 20 -80 117 -130 157 -74 60 -136 86 -220 89 -38 2 -81 0 -95 -5z m125 -200
c37 -16 73 -48 64 -54 -2 -2 -52 -44 -110 -95 -59 -51 -109 -92 -113 -92 -13
0 -36 69 -36 108 0 67 78 151 140 151 8 0 33 -8 55 -18z"/>
<path d="M717 5016 c-31 -46 -60 -92 -65 -103 -9 -17 1 -26 91 -83 56 -35 131
-83 167 -106 36 -22 147 -92 247 -155 100 -63 201 -126 225 -141 158 -101 263
-114 346 -43 36 32 102 140 102 169 0 7 -37 28 -83 47 l-83 35 -17 -23 c-10
-13 -26 -23 -35 -23 -10 0 -202 115 -426 255 -224 140 -409 255 -411 255 -2 0
-28 -38 -58 -84z"/>
<path d="M5950 4747 c-3 -3 -23 -8 -45 -11 -56 -8 -193 -78 -239 -123 -180
-172 -173 -435 17 -625 33 -32 72 -65 88 -73 l28 -15 45 64 c44 61 55 86 38
86 -17 0 -91 84 -111 125 -44 94 -37 172 23 241 l34 39 111 -228 c124 -254
106 -236 198 -197 98 43 188 123 231 205 22 42 26 63 26 135 0 71 -4 94 -26
142 -49 106 -124 176 -227 213 -43 15 -182 31 -191 22z m202 -253 c79 -76 74
-163 -14 -225 l-27 -20 -60 124 c-33 68 -61 130 -63 138 -4 17 46 27 95 18 22
-4 52 -19 69 -35z"/>
<path d="M928 4255 c-2 -1 -23 -6 -48 -9 -187 -25 -299 -209 -244 -397 9 -30
21 -60 26 -67 15 -18 2 -27 -40 -27 l-37 0 -22 -85 c-30 -119 -32 -111 37
-124 33 -7 27 -5 330 -79 146 -36 353 -86 460 -112 107 -25 204 -50 215 -54
43 -16 51 -4 78 113 31 132 30 123 15 123 -7 1 -69 14 -138 31 -69 17 -144 33
-168 37 l-42 7 49 50 c96 97 109 217 38 351 -71 134 -238 225 -444 240 -34 3
-63 4 -65 2z m191 -287 c139 -50 187 -164 110 -262 -36 -46 -46 -46 -174 -14
-66 16 -133 32 -150 35 -43 7 -63 20 -79 51 -40 77 -19 173 45 206 46 23 161
16 248 -16z"/>
<path d="M6550 3699 c-47 -10 -96 -21 -110 -23 -14 -3 -106 -23 -205 -45 -99
-22 -191 -42 -205 -44 -14 -3 -43 -10 -65 -15 -22 -6 -51 -13 -65 -16 -14 -2
-39 -8 -56 -11 l-30 -7 -3 -141 -2 -142 213 -52 c117 -29 240 -58 273 -64 107
-20 101 -25 -55 -44 -25 -3 -67 -10 -95 -16 -27 -5 -61 -11 -75 -14 -21 -4
-123 -26 -140 -30 -3 -1 -28 -5 -55 -9 -28 -4 -57 -11 -63 -15 -9 -5 -14 -51
-18 -149 l-4 -140 52 -15 c29 -9 157 -43 283 -77 127 -34 285 -78 353 -97 68
-19 128 -33 135 -30 8 3 12 38 12 113 l0 109 -199 47 c-109 26 -213 50 -230
52 -17 3 -42 8 -56 11 -14 3 -49 9 -79 15 -51 9 -76 19 -55 21 41 4 241 43
499 97 123 26 130 29 132 52 6 92 4 182 -3 189 -5 5 -27 13 -49 18 -22 6 -134
36 -250 66 -115 31 -223 59 -240 62 -16 3 -43 9 -60 14 l-30 9 30 2 c17 1 37
3 46 5 8 1 42 6 75 9 84 10 122 16 179 26 57 11 94 18 145 26 19 4 42 8 50 9
8 2 36 7 63 11 26 3 50 11 53 15 3 5 7 61 9 124 3 87 1 115 -8 114 -7 -1 -50
-9 -97 -20z"/>
<path d="M1007 3061 c-334 -104 -381 -128 -443 -221 -20 -30 -26 -52 -27 -97
-1 -119 45 -196 165 -273 57 -37 57 -38 37 -56 -40 -36 -62 -102 -57 -169 9
-110 62 -190 166 -252 23 -14 40 -28 37 -33 -2 -4 -19 -13 -37 -20 -58 -23
-57 -23 -25 -123 16 -50 30 -93 31 -94 1 -1 112 32 246 73 135 42 261 80 280
86 64 18 265 80 269 84 5 4 -59 217 -68 227 -5 5 -37 -1 -72 -12 -489 -154
-484 -154 -548 -87 -59 61 -56 137 6 169 15 8 141 50 278 92 138 43 253 80
256 84 6 5 -55 219 -65 229 -2 2 -124 -33 -270 -77 -250 -76 -268 -80 -294
-67 -68 35 -114 112 -98 163 3 10 21 28 39 40 36 25 59 33 342 118 105 32 194
61 198 65 5 4 -6 57 -24 119 -29 96 -36 111 -54 110 -11 -1 -132 -36 -268 -78z"/>
<path d="M5704 2369 c-106 -74 -171 -160 -206 -273 -57 -186 34 -345 207 -363
72 -8 135 23 250 120 95 81 130 97 164 75 29 -18 28 -75 -2 -119 -20 -29 -73
-75 -121 -104 -15 -9 -13 -18 21 -90 20 -44 38 -82 39 -84 2 -2 27 11 56 27
78 45 144 116 186 201 34 69 37 82 37 161 0 79 -3 91 -30 136 -65 104 -190
141 -300 88 -28 -14 -89 -56 -135 -95 -112 -92 -160 -104 -191 -47 -26 49 46
160 139 214 26 15 49 28 51 30 2 2 -13 39 -34 84 -25 52 -44 80 -55 80 -9 0
-43 -18 -76 -41z"/>
<path d="M1815 1804 c-66 -58 -262 -231 -275 -244 -3 -3 -76 -67 -163 -144
l-157 -138 52 -60 c29 -33 67 -75 83 -93 l30 -34 45 40 c25 22 130 116 234
207 246 217 273 241 314 278 l34 31 -81 92 c-45 50 -83 91 -84 91 -1 0 -15
-12 -32 -26z"/>
<path d="M2174 1389 c-110 -14 -202 -79 -250 -177 -24 -48 -29 -69 -29 -132 0
-94 18 -131 138 -292 105 -141 121 -170 112 -214 -23 -125 -224 -55 -306 108
-12 23 -22 44 -23 45 -1 1 -42 -13 -91 -32 -102 -38 -103 -39 -60 -128 104
-221 387 -342 575 -247 91 46 157 144 164 245 7 83 -22 162 -96 265 -156 216
-164 231 -146 280 20 60 95 77 170 39 58 -30 130 -109 167 -184 l32 -64 104
36 104 35 -20 52 c-71 182 -261 341 -433 362 -23 3 -45 6 -51 8 -5 1 -33 -1
-61 -5z"/>
<path d="M1049 1142 c-74 -38 -93 -121 -44 -192 105 -151 319 -27 221 128 -44
70 -115 95 -177 64z"/>
</g>
</svg>
