<svg width="20" height="20" viewBox="0 0 20 20" fill="none" xmlns="http://www.w3.org/2000/svg">
<path d="M14.3616 12.4513L14.3617 12.4514C14.4369 12.5231 14.5466 12.5694 14.6683 12.5695L14.3616 12.4513ZM14.3616 12.4513L10.5244 8.79979L10.0074 8.30778M14.3616 12.4513L10.0074 8.30778M10.0074 8.30778L9.49034 8.79979M10.0074 8.30778L9.49034 8.79979M9.49034 8.79979L5.65314 12.4513L5.65306 12.4512M9.49034 8.79979L5.65306 12.4512M5.65306 12.4512L5.64378 12.4604M5.65306 12.4512L5.64378 12.4604M5.64378 12.4604C5.60721 12.4964 5.56143 12.5271 5.50814 12.5489C5.45479 12.5707 5.39615 12.5827 5.33593 12.5832C5.27572 12.5837 5.21677 12.5727 5.16287 12.5517C5.10902 12.5307 5.06249 12.5007 5.02507 12.4651C4.98773 12.4295 4.96035 12.3894 4.94254 12.348L4.25352 12.6442M5.64378 12.4604L4.25352 12.6442M4.25352 12.6442L4.94254 12.348C4.92478 12.3066 4.91637 12.2638 4.91676 12.2215C4.91715 12.1792 4.92633 12.1364 4.94493 12.0952C4.96358 12.0539 4.99183 12.014 5.03001 11.9789L5.03009 11.979M4.25352 12.6442L5.03009 11.979M5.03009 11.979L5.03951 11.97M5.03009 11.979L5.03951 11.97M5.03951 11.97L9.70047 7.53456M5.03951 11.97L9.70047 7.53456M9.70047 7.53456C9.7005 7.53453 9.70052 7.53451 9.70055 7.53448M9.70047 7.53456L9.70055 7.53448M9.70055 7.53448C9.7759 7.46284 9.88563 7.4165 10.0074 7.4165M9.70055 7.53448L10.0074 7.4165M10.0074 7.4165C10.1291 7.4165 10.2388 7.46285 10.3142 7.53448M10.0074 7.4165L10.3142 7.53448M10.3142 7.53448C10.3142 7.53451 10.3142 7.53453 10.3143 7.53456M10.3142 7.53448L10.3143 7.53456M10.3143 7.53456L14.9751 11.9699M10.3143 7.53456L14.9751 11.9699M14.9751 11.9699C15.0306 12.0227 15.0639 12.0854 15.0769 12.1478C15.0899 12.2099 15.0836 12.2747 15.057 12.3357C15.0303 12.3972 14.9822 12.4558 14.9132 12.4997C14.8438 12.5439 14.7586 12.5695 14.6686 12.5695L14.9751 11.9699Z" fill="#070707" stroke="#070707" stroke-width="1.5"/>
</svg>
