<svg width="20" height="20" viewBox="0 0 20 20" fill="none" xmlns="http://www.w3.org/2000/svg">
<path d="M9.70627 12.4646L9.70635 12.4647C9.78182 12.5365 9.89194 12.5831 10.0143 12.5832L9.70627 12.4646ZM9.70627 12.4646L5.0396 8.02929L5.03968 8.02921M9.70627 12.4646L5.03968 8.02921M5.03968 8.02921L5.0301 8.02041M5.03968 8.02921L5.0301 8.02041M5.0301 8.02041C4.99182 7.98527 4.96354 7.94534 4.9449 7.9041C4.92631 7.86297 4.91715 7.82026 4.91676 7.77812C4.91638 7.73599 4.92476 7.69325 4.94251 7.65201C4.96031 7.61066 4.98771 7.57048 5.02514 7.53491C5.06266 7.49925 5.10936 7.46912 5.16345 7.44809C5.2176 7.42703 5.27683 7.41602 5.33736 7.41652C5.39789 7.41702 5.45681 7.42901 5.5104 7.45089C5.56393 7.47274 5.60987 7.50352 5.64653 7.5396L5.64645 7.53968M5.0301 8.02041L5.64645 7.53968M5.64645 7.53968L5.6559 7.54865M5.64645 7.53968L5.6559 7.54865M5.6559 7.54865L9.49773 11.2001L10.0144 11.6911M5.6559 7.54865L10.0144 11.6911M10.0144 11.6911L10.5311 11.2001M10.0144 11.6911L10.5311 11.2001M10.5311 11.2001L14.367 7.5543C14.4432 7.48604 14.5515 7.44279 14.6707 7.44377C14.7917 7.44477 14.9003 7.49118 14.975 7.56216C15.0485 7.63196 15.0827 7.71818 15.0834 7.79982C15.0841 7.88011 15.0526 7.96501 14.9833 8.03494L10.3226 12.4646L10.3225 12.4647M10.5311 11.2001L10.3225 12.4647M10.3225 12.4647C10.247 12.5365 10.1369 12.5831 10.0146 12.5832L10.3225 12.4647Z" fill="#070707" stroke="#070707" stroke-width="1.5"/>
</svg>
