<svg width="16" height="16" viewBox="0 0 16 16" fill="none" xmlns="http://www.w3.org/2000/svg">
<path d="M11.5925 9.8527L11.5926 9.85277C11.6242 9.88288 11.6747 9.90592 11.7347 9.90593L11.7346 10.6559M11.5925 9.8527L12.5956 10.1083M11.5925 9.8527L8.52277 6.93146L8.00575 6.43946L7.48872 6.93146L4.41896 9.8527L4.41888 9.85261L4.4096 9.86176C4.39453 9.87661 4.37446 9.89041 4.3496 9.90057C4.32469 9.91076 4.29663 9.91658 4.26736 9.91682C4.23809 9.91706 4.20983 9.91171 4.18457 9.90187C4.15936 9.89206 4.13885 9.87848 4.12331 9.86369C4.10786 9.84898 4.09778 9.83357 4.09169 9.81941C4.08564 9.80535 4.08314 9.7917 4.08326 9.77887C4.08337 9.76603 4.08613 9.75231 4.09252 9.73817L3.40893 9.42959L4.09252 9.73817C4.09895 9.72392 4.10945 9.70847 4.12537 9.69384L4.12544 9.69392L4.13487 9.68495L7.86362 6.13662C7.86364 6.13659 7.86367 6.13657 7.8637 6.13654C7.89535 6.10647 7.94582 6.0835 8.00575 6.0835C8.06573 6.0835 8.11623 6.10651 8.14788 6.13662M11.5925 9.8527L8.14788 6.13662M11.7346 10.6559L11.7344 9.90593C11.7785 9.90592 11.8188 9.89331 11.8499 9.87352L12.2524 10.5064L11.8499 9.87352C11.8807 9.85395 11.8988 9.82996 11.9079 9.80897L12.5956 10.1083M11.7346 10.6559C11.4874 10.6559 11.2503 10.5624 11.0755 10.396M11.7346 10.6559L11.0755 10.396M12.5956 10.1083L11.9079 9.80897C11.9169 9.78849 11.9185 9.76829 11.9145 9.74922L12.6487 9.59581M12.5956 10.1083C12.6662 9.94621 12.6846 9.76787 12.6487 9.59581M12.6487 9.59581L11.9145 9.74922C11.9105 9.72985 11.8995 9.70673 11.8766 9.68495M12.6487 9.59581C12.6127 9.42376 12.524 9.26571 12.3936 9.14164L11.8766 9.68495M11.8766 9.68495C11.8766 9.68493 11.8766 9.6849 11.8765 9.68487L8.14788 6.13662M11.8766 9.68495L8.14788 6.13662M11.0755 10.396L8.00575 7.47477L4.93599 10.396C4.84999 10.4807 4.74713 10.5483 4.6334 10.5948L11.0755 10.396Z" fill="#070707" stroke="#070707" stroke-width="1.5"/>
</svg>
