<svg width="16" height="16" viewBox="0 0 16 16" fill="none" xmlns="http://www.w3.org/2000/svg">
<path d="M8.01139 10.6668L8.01154 9.91683C7.95097 9.91682 7.90007 9.89358 7.86829 9.86336L7.86821 9.86329L4.13487 6.315L4.13495 6.31492L4.12537 6.30612C4.10938 6.29144 4.09887 6.27598 4.09246 6.2618C4.0861 6.24772 4.08337 6.23411 4.08326 6.22142C4.08314 6.20873 4.08562 6.19519 4.09164 6.18121C4.09771 6.16711 4.10778 6.1517 4.12331 6.13695C4.13891 6.12211 4.15956 6.10845 4.18498 6.09857C4.21045 6.08866 4.23896 6.08326 4.2685 6.0835C4.29805 6.08375 4.32636 6.08962 4.35148 6.09987L4.63496 5.40551L4.35148 6.09987C4.37654 6.11011 4.39673 6.12399 4.41187 6.13888L4.41179 6.13896L4.42123 6.14794L7.4947 9.06907L8.01139 9.56015L8.52807 9.06907L11.5949 6.15424C11.6274 6.12582 11.6771 6.10483 11.7352 6.10531C11.795 6.1058 11.8451 6.12889 11.8765 6.15875L12.3932 5.61512L11.8765 6.15875C11.9067 6.18743 11.9164 6.21802 11.9166 6.24152C11.9168 6.26422 11.9083 6.29338 11.8813 6.3213L8.15457 9.86329L8.15449 9.86336C8.1227 9.89358 8.07181 9.91682 8.01123 9.91683L8.01139 10.6668ZM8.01139 10.6668C8.2589 10.6668 8.49626 10.5733 8.67125 10.4069H7.35152C7.52651 10.5733 7.76387 10.6668 8.01139 10.6668Z" fill="#070707" stroke="#070707" stroke-width="1.5"/>
</svg>
