<svg width="115" height="17" viewBox="0 0 115 17" fill="none" xmlns="http://www.w3.org/2000/svg">
<path d="M4.608 13.096C4.27733 13.096 3.94133 13.0853 3.6 13.064C3.26933 13.0427 2.93867 13.016 2.608 12.984C2.288 12.9413 1.97333 12.8933 1.664 12.84C1.36533 12.7867 1.088 12.728 0.832 12.664V10.472C1.17333 10.504 1.552 10.5307 1.968 10.552C2.384 10.5733 2.80533 10.5893 3.232 10.6C3.66933 10.6107 4.08 10.616 4.464 10.616C4.83733 10.616 5.152 10.5893 5.408 10.536C5.67467 10.472 5.87733 10.3707 6.016 10.232C6.15467 10.0827 6.224 9.88 6.224 9.624V9.32C6.224 9.032 6.128 8.81333 5.936 8.664C5.75467 8.51467 5.52 8.44 5.232 8.44H4.304C3.10933 8.44 2.20267 8.17867 1.584 7.656C0.965333 7.13333 0.656 6.25333 0.656 5.016V4.456C0.656 3.29333 0.997333 2.43467 1.68 1.88C2.36267 1.31467 3.344 1.032 4.624 1.032C5.09333 1.032 5.54667 1.05867 5.984 1.112C6.42133 1.15467 6.83733 1.208 7.232 1.272C7.62667 1.336 7.97333 1.40533 8.272 1.48V3.656C7.78133 3.624 7.232 3.592 6.624 3.56C6.016 3.528 5.46133 3.512 4.96 3.512C4.62933 3.512 4.336 3.544 4.08 3.608C3.824 3.66133 3.62667 3.768 3.488 3.928C3.34933 4.07733 3.28 4.30133 3.28 4.6V4.824C3.28 5.16533 3.376 5.416 3.568 5.576C3.77067 5.736 4.07467 5.816 4.48 5.816H5.584C6.32 5.816 6.928 5.95467 7.408 6.232C7.888 6.49867 8.24533 6.872 8.48 7.352C8.72533 7.82133 8.848 8.35467 8.848 8.952V9.544C8.848 10.5253 8.672 11.272 8.32 11.784C7.97867 12.296 7.488 12.6427 6.848 12.824C6.21867 13.0053 5.472 13.096 4.608 13.096ZM10.6392 3.224C10.4045 3.224 10.2872 3.10667 10.2872 2.872V1.192C10.2872 0.946666 10.4045 0.823999 10.6392 0.823999H12.7832C12.9005 0.823999 12.9859 0.861333 13.0392 0.936C13.0925 1 13.1192 1.08533 13.1192 1.192V2.872C13.1192 3.10667 13.0072 3.224 12.7832 3.224H10.6392ZM10.3192 13V4.392H13.0872V13H10.3192ZM14.7134 13V4.392H17.0014L17.4814 5.24C17.8334 4.97333 18.2174 4.744 18.6334 4.552C19.0494 4.34933 19.5827 4.248 20.2334 4.248C20.7667 4.248 21.2094 4.36 21.5614 4.584C21.9134 4.808 22.1801 5.09067 22.3614 5.432C22.5961 5.26133 22.8627 5.08533 23.1614 4.904C23.4707 4.712 23.8014 4.55733 24.1534 4.44C24.5161 4.312 24.8734 4.248 25.2254 4.248C25.9401 4.248 26.4947 4.38133 26.8894 4.648C27.2841 4.904 27.5614 5.27733 27.7214 5.768C27.8814 6.248 27.9614 6.824 27.9614 7.496V13H25.1934V7.752C25.1934 7.50667 25.1507 7.30933 25.0654 7.16C24.9801 7.01067 24.8627 6.904 24.7134 6.84C24.5641 6.76533 24.3827 6.728 24.1694 6.728C23.9027 6.728 23.6361 6.78667 23.3694 6.904C23.1027 7.01067 22.8734 7.144 22.6814 7.304C22.6921 7.38933 22.6974 7.47467 22.6974 7.56C22.7081 7.64533 22.7134 7.72533 22.7134 7.8V13H19.9454V7.752C19.9454 7.50667 19.9027 7.30933 19.8174 7.16C19.7321 7.01067 19.6147 6.904 19.4654 6.84C19.3161 6.76533 19.1401 6.728 18.9374 6.728C18.7561 6.728 18.5747 6.75467 18.3934 6.808C18.2121 6.85067 18.0467 6.91467 17.8974 7C17.7481 7.08533 17.6094 7.18133 17.4814 7.288V13H14.7134ZM29.5295 16.792V4.392H31.8495L32.2975 5.192C32.5001 5.02133 32.7135 4.86667 32.9375 4.728C33.1615 4.57867 33.4015 4.46133 33.6575 4.376C33.9241 4.29067 34.2175 4.248 34.5375 4.248C35.0495 4.248 35.4975 4.344 35.8815 4.536C36.2761 4.728 36.5961 5.016 36.8415 5.4C37.0868 5.77333 37.2681 6.23733 37.3855 6.792C37.5135 7.34667 37.5775 7.98667 37.5775 8.712C37.5775 9.61867 37.4868 10.4027 37.3055 11.064C37.1348 11.7253 36.8308 12.2373 36.3935 12.6C35.9561 12.952 35.3375 13.128 34.5375 13.128C34.1535 13.128 33.7641 13.0853 33.3695 13C32.9748 12.9253 32.6175 12.808 32.2975 12.648V16.792H29.5295ZM33.6095 10.856C33.8015 10.856 33.9881 10.8027 34.1695 10.696C34.3615 10.5787 34.5161 10.3653 34.6335 10.056C34.7508 9.74667 34.8095 9.29867 34.8095 8.712C34.8095 8.12533 34.7615 7.672 34.6655 7.352C34.5695 7.02133 34.4308 6.792 34.2495 6.664C34.0788 6.536 33.8708 6.472 33.6255 6.472C33.3481 6.472 33.0921 6.51467 32.8575 6.6C32.6228 6.68533 32.4361 6.77067 32.2975 6.856V10.536C32.4468 10.632 32.6388 10.712 32.8735 10.776C33.1188 10.8293 33.3641 10.856 33.6095 10.856ZM41.8029 13.048C41.1629 13.048 40.6296 12.9467 40.2029 12.744C39.7763 12.5307 39.4616 12.216 39.2589 11.8C39.0563 11.384 38.9549 10.856 38.9549 10.216V0.792H41.7229V9.784C41.7229 10.0507 41.7496 10.264 41.8029 10.424C41.8563 10.584 41.9416 10.7067 42.0589 10.792C42.1763 10.8667 42.3256 10.92 42.5069 10.952L43.0829 11.032V13.048H41.8029ZM47.8431 13.08C46.8831 13.08 46.1098 12.9573 45.5231 12.712C44.9365 12.456 44.5098 12.0133 44.2431 11.384C43.9871 10.744 43.8591 9.85333 43.8591 8.712C43.8591 7.53867 43.9765 6.632 44.2111 5.992C44.4565 5.34133 44.8618 4.888 45.4271 4.632C45.9925 4.376 46.7605 4.248 47.7311 4.248C48.6165 4.248 49.3205 4.33333 49.8431 4.504C50.3658 4.67467 50.7391 4.97867 50.9631 5.416C51.1978 5.85333 51.3151 6.472 51.3151 7.272C51.3151 7.86933 51.1978 8.344 50.9631 8.696C50.7285 9.048 50.3925 9.29867 49.9551 9.448C49.5285 9.58667 49.0218 9.656 48.4351 9.656H46.5951C46.6271 9.99733 46.6911 10.2693 46.7871 10.472C46.8938 10.6747 47.0858 10.8187 47.3631 10.904C47.6405 10.9893 48.0511 11.032 48.5951 11.032H51.0111V12.648C50.6165 12.744 50.1631 12.84 49.6511 12.936C49.1498 13.032 48.5471 13.08 47.8431 13.08ZM46.5631 8.024H48.1311C48.3978 8.024 48.5898 7.97067 48.7071 7.864C48.8245 7.75733 48.8831 7.56533 48.8831 7.288C48.8831 7.032 48.8458 6.82933 48.7711 6.68C48.6965 6.52 48.5738 6.408 48.4031 6.344C48.2325 6.26933 48.0085 6.232 47.7311 6.232C47.4538 6.232 47.2298 6.28533 47.0591 6.392C46.8885 6.488 46.7605 6.66933 46.6751 6.936C46.6005 7.192 46.5631 7.55467 46.5631 8.024ZM56.9221 13V1.128H59.6901V13H56.9221ZM64.0296 13V3.608H60.9096V1.128H69.9016V3.608H66.7816V13H64.0296ZM75.2465 13V1.128H77.4385L81.9825 8.312V1.128H84.7505V13H82.5425L77.9985 5.832V13H75.2465ZM90.2083 13.08C89.2483 13.08 88.475 12.9573 87.8883 12.712C87.3017 12.456 86.875 12.0133 86.6083 11.384C86.3523 10.744 86.2243 9.85333 86.2243 8.712C86.2243 7.53867 86.3417 6.632 86.5763 5.992C86.8217 5.34133 87.227 4.888 87.7923 4.632C88.3577 4.376 89.1257 4.248 90.0963 4.248C90.9817 4.248 91.6857 4.33333 92.2083 4.504C92.731 4.67467 93.1043 4.97867 93.3283 5.416C93.563 5.85333 93.6803 6.472 93.6803 7.272C93.6803 7.86933 93.563 8.344 93.3283 8.696C93.0937 9.048 92.7577 9.29867 92.3203 9.448C91.8937 9.58667 91.387 9.656 90.8003 9.656H88.9603C88.9923 9.99733 89.0563 10.2693 89.1523 10.472C89.259 10.6747 89.451 10.8187 89.7283 10.904C90.0057 10.9893 90.4163 11.032 90.9603 11.032H93.3763V12.648C92.9817 12.744 92.5283 12.84 92.0163 12.936C91.515 13.032 90.9123 13.08 90.2083 13.08ZM88.9283 8.024H90.4963C90.763 8.024 90.955 7.97067 91.0723 7.864C91.1897 7.75733 91.2483 7.56533 91.2483 7.288C91.2483 7.032 91.211 6.82933 91.1363 6.68C91.0617 6.52 90.939 6.408 90.7683 6.344C90.5977 6.26933 90.3737 6.232 90.0963 6.232C89.819 6.232 89.595 6.28533 89.4243 6.392C89.2537 6.488 89.1257 6.66933 89.0403 6.936C88.9657 7.192 88.9283 7.55467 88.9283 8.024ZM96.4254 13L94.2654 4.392H97.1134L98.2174 10.44L99.7374 4.392H102.009L103.529 10.44L104.473 4.392H107.321L105.209 13H102.153L100.809 8.328L99.4174 13H96.4254ZM111.249 13.096C110.961 13.096 110.663 13.0853 110.353 13.064C110.044 13.0427 109.74 13.016 109.441 12.984C109.143 12.952 108.86 12.9093 108.593 12.856C108.337 12.792 108.113 12.7227 107.921 12.648V11.032H111.825C112.007 11.032 112.151 11.016 112.257 10.984C112.364 10.952 112.439 10.904 112.481 10.84C112.524 10.7653 112.545 10.664 112.545 10.536V10.296C112.545 10.1467 112.492 10.0293 112.385 9.944C112.289 9.848 112.087 9.8 111.777 9.8H110.369C109.889 9.8 109.447 9.72533 109.041 9.576C108.647 9.42667 108.332 9.176 108.097 8.824C107.863 8.46133 107.745 7.98667 107.745 7.4V6.888C107.745 6.33333 107.852 5.86933 108.065 5.496C108.279 5.112 108.647 4.81867 109.169 4.616C109.703 4.41333 110.433 4.312 111.361 4.312C111.735 4.312 112.124 4.33333 112.529 4.376C112.935 4.41867 113.313 4.47733 113.665 4.552C114.017 4.616 114.289 4.68533 114.481 4.76V6.376H110.785C110.551 6.376 110.375 6.41333 110.257 6.488C110.151 6.56267 110.097 6.696 110.097 6.888V7.112C110.097 7.24 110.124 7.34133 110.177 7.416C110.231 7.49067 110.321 7.544 110.449 7.576C110.577 7.59733 110.737 7.608 110.929 7.608H112.353C113.271 7.608 113.921 7.816 114.305 8.232C114.689 8.63733 114.881 9.20267 114.881 9.928V10.744C114.881 11.32 114.743 11.784 114.465 12.136C114.199 12.4773 113.793 12.7227 113.249 12.872C112.716 13.0213 112.049 13.096 111.249 13.096Z" fill="#FEFEFE"/>
</svg>
