<svg width="32" height="32" viewBox="0 0 32 32" fill="none" xmlns="http://www.w3.org/2000/svg">
<path d="M28.1902 22.8596C27.7466 23.8844 27.2215 24.8277 26.6131 25.695C25.7838 26.8774 25.1048 27.6958 24.5816 28.1503C23.7704 28.8963 22.9013 29.2783 21.9706 29.3C21.3025 29.3 20.4968 29.1099 19.5588 28.7243C18.6179 28.3404 17.7531 28.1503 16.9624 28.1503C16.1331 28.1503 15.2437 28.3404 14.2924 28.7243C13.3397 29.1099 12.5721 29.3109 11.9853 29.3308C11.0928 29.3688 10.2033 28.9759 9.31532 28.1503C8.74859 27.656 8.03972 26.8086 7.19053 25.6081C6.27942 24.3262 5.53035 22.8397 4.94353 21.1449C4.31505 19.3143 4 17.5417 4 15.8256C4 13.8598 4.42478 12.1643 5.2756 10.7435C5.94427 9.60221 6.83383 8.70196 7.9472 8.04108C9.06056 7.38019 10.2636 7.04341 11.5591 7.02186C12.2679 7.02186 13.1975 7.24113 14.3527 7.67207C15.5046 8.10445 16.2443 8.32372 16.5686 8.32372C16.811 8.32372 17.6327 8.06733 19.0256 7.55619C20.3428 7.08216 21.4546 6.88589 22.3653 6.9632C24.8332 7.16237 26.6873 8.13523 27.9204 9.88793C25.7132 11.2253 24.6214 13.0984 24.6431 15.5013C24.663 17.373 25.342 18.9305 26.6765 20.1671C27.2812 20.7411 27.9566 21.1847 28.708 21.4998C28.5451 21.9724 28.373 22.425 28.1902 22.8596ZM22.5301 0.586834C22.5301 2.05384 21.9942 3.42357 20.9259 4.69138C19.6367 6.19856 18.0774 7.06948 16.3864 6.93206C16.3649 6.75606 16.3524 6.57083 16.3524 6.37619C16.3524 4.96787 16.9655 3.46069 18.0542 2.22836C18.5978 1.60442 19.2891 1.08561 20.1274 0.671752C20.9639 0.264067 21.7551 0.0386088 22.4993 0C22.5211 0.196115 22.5301 0.392243 22.5301 0.586815V0.586834Z" fill="currentColor"/>
</svg>
