<svg width="26" height="26" viewBox="0 0 26 26" fill="none" xmlns="http://www.w3.org/2000/svg">
<path fill-rule="evenodd" clip-rule="evenodd" d="M13 25C19.6274 25 25 19.6274 25 13C25 6.37258 19.6274 1 13 1C6.37258 1 1 6.37258 1 13C1 19.6274 6.37258 25 13 25Z"  stroke-width="1.5" stroke-linecap="round" stroke-linejoin="round"/>
<path d="M9.71178 16.2833C12.768 19.341 16.6404 21.2899 18.9434 18.9966L19.502 18.438C20.2468 17.6946 20.1432 16.4625 19.278 15.8619C18.7334 15.4825 18.1482 15.0751 17.5014 14.6201C16.8322 14.1496 15.9152 14.2238 15.3342 14.7993L14.7028 15.4265C13.9202 14.9309 13.146 14.2939 12.4264 13.5756L12.4236 13.5728C11.7054 12.8546 11.0684 12.079 10.5728 11.2963L11.2 10.6649C11.7768 10.0853 11.8482 9.16686 11.3792 8.49764C10.9228 7.85082 10.5154 7.26559 10.1374 6.72098C9.53677 5.85714 8.30477 5.75354 7.56137 6.49697L7.00277 7.05559C4.71096 9.35867 6.65836 13.2284 9.71458 16.2875" stroke-width="1.5" stroke-linecap="round" stroke-linejoin="round"/>
</svg>
