<svg width="14" height="14" viewBox="0 0 14 14" fill="none" xmlns="http://www.w3.org/2000/svg">
<g id="clock">
<g id="Group">
<path id="Ellipse 5" d="M12.551 6.52228C12.551 9.84807 9.85353 12.5446 6.5255 12.5446C3.19748 12.5446 0.5 9.84807 0.5 6.52228C0.5 3.1965 3.19748 0.5 6.5255 0.5C9.85353 0.5 12.551 3.1965 12.551 6.52228Z" stroke="#666666"/>
<path id="Vector" d="M3.17876 7.06579H6.60909C6.86536 7.06579 7.06909 6.88526 7.06909 6.64456V2.58923C7.06909 2.35458 6.86536 2.17407 6.60909 2.17407C6.35281 2.17407 6.15565 2.35458 6.15565 2.58923V6.2294H3.17876C2.91589 6.2294 2.71875 6.40992 2.71875 6.64456C2.71875 6.88526 2.91589 7.06579 3.17876 7.06579Z" fill="#666666"/>
</g>
</g>
</svg>
