<svg width="13" height="14" viewBox="0 0 13 14" fill="none" xmlns="http://www.w3.org/2000/svg">
<g id="star">
<path id="star.fill" d="M2.492 13.4026C2.71237 13.5709 2.97865 13.518 3.30462 13.268L6.5 10.8163L9.69538 13.268C10.0213 13.518 10.2922 13.5709 10.508 13.4026C10.7192 13.2344 10.7697 12.9555 10.6411 12.5517L9.38778 8.61942L12.6061 6.19657C12.9321 5.95141 13.0606 5.69662 12.9734 5.42742C12.8908 5.16783 12.652 5.02842 12.2388 5.03322L8.29051 5.05726L7.08307 1.11052C6.95911 0.701904 6.76628 0.5 6.5 0.5C6.23372 0.5 6.04089 0.701904 5.91693 1.11052L4.70949 5.05726L0.761171 5.03322C0.352567 5.02842 0.10924 5.16783 0.0266011 5.42742C-0.0606291 5.69662 0.0679207 5.95141 0.393886 6.19657L3.61222 8.61942L2.36345 12.5517C2.23031 12.9555 2.28081 13.2344 2.492 13.4026Z" fill="#666666"/>
</g>
</svg>
