<svg width="20" height="20" viewBox="0 0 20 20" fill="none" xmlns="http://www.w3.org/2000/svg">
<path d="M10.7407 12.8848C10.6784 12.9424 10.6284 13.0118 10.5937 13.089C10.559 13.1661 10.5403 13.2495 10.5388 13.3339C10.5373 13.4184 10.553 13.5023 10.5849 13.5806C10.6168 13.659 10.6643 13.7301 10.7246 13.7899C10.7849 13.8496 10.8567 13.8967 10.9357 13.9283C11.0147 13.96 11.0993 13.9755 11.1845 13.974C11.2697 13.9725 11.3538 13.954 11.4316 13.9197C11.5095 13.8853 11.5795 13.8357 11.6376 13.7739L15.0222 10.4187C15.0812 10.3604 15.1281 10.2911 15.1601 10.2148C15.192 10.1385 15.2085 10.0567 15.2085 9.97412C15.2085 9.89151 15.192 9.80971 15.1601 9.73342C15.1281 9.65713 15.0812 9.58785 15.0222 9.52956L11.6376 6.17435C11.5795 6.11254 11.5095 6.06297 11.4316 6.02858C11.3538 5.9942 11.2697 5.97571 11.1845 5.97422C11.0993 5.97273 11.0147 5.98827 10.9357 6.01991C10.8567 6.05155 10.7849 6.09864 10.7246 6.15838C10.6643 6.21812 10.6168 6.28928 10.5849 6.36761C10.553 6.44595 10.5373 6.52985 10.5388 6.61432C10.5403 6.69879 10.559 6.78209 10.5937 6.85926C10.6284 6.93643 10.6784 7.00588 10.7407 7.06348L13.0422 9.34502H4.8431C4.6748 9.34502 4.51338 9.4113 4.39437 9.52928C4.27536 9.64726 4.2085 9.80727 4.2085 9.97412C4.2085 10.141 4.27536 10.301 4.39437 10.419C4.51338 10.5369 4.6748 10.6032 4.8431 10.6032H13.0422L10.7407 12.8848Z" fill="#070707"/>
</svg>
