<svg width="24" height="24" viewBox="0 0 24 24" fill="none" xmlns="http://www.w3.org/2000/svg">
<g clip-path="url(#clip0_1_3416)">
<path d="M5.15103 20.8419H18.859C20.9563 20.8419 22 19.8915 22 18.0089V6.85097C22 4.96846 20.9563 4.01807 18.859 4.01807H5.15103C3.05369 4.01807 2 4.95932 2 6.85097V18.0089C2 19.9006 3.05369 20.8419 5.15103 20.8419ZM5.0005 19.3706C4.10738 19.3706 3.61565 18.9411 3.61565 18.0912V9.47369C3.61565 8.63296 4.10738 8.19432 5.0005 8.19432H18.9894C19.8826 8.19432 20.3844 8.63296 20.3844 9.47369V18.0912C20.3844 18.9411 19.8826 19.3706 18.9894 19.3706H5.0005ZM10.0482 11.475H10.6402C10.9915 11.475 11.1018 11.3836 11.1018 11.0638V10.5246C11.1018 10.2048 10.9915 10.1042 10.6402 10.1042H10.0482C9.69693 10.1042 9.57651 10.2048 9.57651 10.5246V11.0638C9.57651 11.3836 9.69693 11.475 10.0482 11.475ZM13.3798 11.475H13.9719C14.3231 11.475 14.4435 11.3836 14.4435 11.0638V10.5246C14.4435 10.2048 14.3231 10.1042 13.9719 10.1042H13.3798C13.0286 10.1042 12.9082 10.2048 12.9082 10.5246V11.0638C12.9082 11.3836 13.0286 11.475 13.3798 11.475ZM16.7115 11.475H17.3035C17.6547 11.475 17.7752 11.3836 17.7752 11.0638V10.5246C17.7752 10.2048 17.6547 10.1042 17.3035 10.1042H16.7115C16.3602 10.1042 16.2498 10.2048 16.2498 10.5246V11.0638C16.2498 11.3836 16.3602 11.475 16.7115 11.475ZM6.7165 14.4633H7.29854C7.65981 14.4633 7.77019 14.3719 7.77019 14.052V13.5128C7.77019 13.193 7.65981 13.1017 7.29854 13.1017H6.7165C6.35524 13.1017 6.24485 13.193 6.24485 13.5128V14.052C6.24485 14.3719 6.35524 14.4633 6.7165 14.4633ZM10.0482 14.4633H10.6402C10.9915 14.4633 11.1018 14.3719 11.1018 14.052V13.5128C11.1018 13.193 10.9915 13.1017 10.6402 13.1017H10.0482C9.69693 13.1017 9.57651 13.193 9.57651 13.5128V14.052C9.57651 14.3719 9.69693 14.4633 10.0482 14.4633ZM13.3798 14.4633H13.9719C14.3231 14.4633 14.4435 14.3719 14.4435 14.052V13.5128C14.4435 13.193 14.3231 13.1017 13.9719 13.1017H13.3798C13.0286 13.1017 12.9082 13.193 12.9082 13.5128V14.052C12.9082 14.3719 13.0286 14.4633 13.3798 14.4633ZM16.7115 14.4633H17.3035C17.6547 14.4633 17.7752 14.3719 17.7752 14.052V13.5128C17.7752 13.193 17.6547 13.1017 17.3035 13.1017H16.7115C16.3602 13.1017 16.2498 13.193 16.2498 13.5128V14.052C16.2498 14.3719 16.3602 14.4633 16.7115 14.4633ZM6.7165 17.4606H7.29854C7.65981 17.4606 7.77019 17.3601 7.77019 17.0403V16.5011C7.77019 16.1813 7.65981 16.0899 7.29854 16.0899H6.7165C6.35524 16.0899 6.24485 16.1813 6.24485 16.5011V17.0403C6.24485 17.3601 6.35524 17.4606 6.7165 17.4606ZM10.0482 17.4606H10.6402C10.9915 17.4606 11.1018 17.3601 11.1018 17.0403V16.5011C11.1018 16.1813 10.9915 16.0899 10.6402 16.0899H10.0482C9.69693 16.0899 9.57651 16.1813 9.57651 16.5011V17.0403C9.57651 17.3601 9.69693 17.4606 10.0482 17.4606ZM13.3798 17.4606H13.9719C14.3231 17.4606 14.4435 17.3601 14.4435 17.0403V16.5011C14.4435 16.1813 14.3231 16.0899 13.9719 16.0899H13.3798C13.0286 16.0899 12.9082 16.1813 12.9082 16.5011V17.0403C12.9082 17.3601 13.0286 17.4606 13.3798 17.4606Z" fill="currentColor"/>
</g>
<defs>
<clipPath id="clip0_1_3416">
<rect width="20" height="16.8421" fill="currentColor" transform="translate(2 4)"/>
</clipPath>
</defs>
</svg>
