<svg width="40" height="40" viewBox="0 0 40 40" fill="none" xmlns="http://www.w3.org/2000/svg">
<path fill-rule="evenodd" clip-rule="evenodd" d="M29.6212 12.2078C29.7413 12.0878 29.8366 11.9454 29.9016 11.7886C29.9667 11.6319 30.0002 11.4638 30.0003 11.2941C30.0004 11.1243 29.9671 10.9563 29.9022 10.7994C29.8374 10.6425 29.7423 10.5 29.6223 10.3799C29.5024 10.2598 29.36 10.1645 29.2032 10.0995C29.0464 10.0344 28.8784 10.0009 28.7086 10.0008C28.5389 10.0007 28.3708 10.034 28.214 10.0989C28.0571 10.1637 27.9146 10.2588 27.7945 10.3788L20 18.1733L12.2078 10.3788C11.9652 10.1363 11.6363 10 11.2933 10C10.9503 10 10.6213 10.1363 10.3788 10.3788C10.1363 10.6213 10 10.9503 10 11.2933C10 11.6363 10.1363 11.9652 10.3788 12.2078L18.1733 20L10.3788 27.7922C10.2587 27.9123 10.1634 28.0549 10.0984 28.2118C10.0335 28.3687 10 28.5369 10 28.7067C10 28.8766 10.0335 29.0447 10.0984 29.2016C10.1634 29.3585 10.2587 29.5011 10.3788 29.6212C10.6213 29.8637 10.9503 30 11.2933 30C11.4631 30 11.6313 29.9665 11.7882 29.9016C11.9451 29.8366 12.0877 29.7413 12.2078 29.6212L20 21.8267L27.7945 29.6212C28.037 29.8634 28.3659 29.9994 28.7086 29.9992C29.0514 29.999 29.3801 29.8626 29.6223 29.6201C29.8646 29.3775 30.0005 29.0487 30.0003 28.7059C30.0001 28.3631 29.8637 28.0345 29.6212 27.7922L21.8267 20L29.6212 12.2078Z" fill="currentColor"/>
</svg>
