<svg width="32" height="32" viewBox="0 0 32 32" fill="none" xmlns="http://www.w3.org/2000/svg">
<mask id="path-1-inside-1_1_3275" fill="white">
<path fill-rule="evenodd" clip-rule="evenodd" d="M24 6.29208C19.9487 7.65766 17.0314 11.4881 17.0314 15.9999C17.0314 20.5117 19.9487 24.3421 24 25.7077C22.0384 27.1183 19.6319 27.949 17.0314 27.949C10.4321 27.949 5.08228 22.5992 5.08228 15.9999C5.08228 9.40058 10.4321 4.05078 17.0314 4.05078C19.6319 4.05078 22.0384 4.88151 24 6.29208Z"/>
</mask>
<path fill-rule="evenodd" clip-rule="evenodd" d="M24 6.29208C19.9487 7.65766 17.0314 11.4881 17.0314 15.9999C17.0314 20.5117 19.9487 24.3421 24 25.7077C22.0384 27.1183 19.6319 27.949 17.0314 27.949C10.4321 27.949 5.08228 22.5992 5.08228 15.9999C5.08228 9.40058 10.4321 4.05078 17.0314 4.05078C19.6319 4.05078 22.0384 4.88151 24 6.29208Z" fill="currentColor"/>
<path d="M24 6.29208L24.4791 7.7135L27.248 6.78017L24.8757 5.07426L24 6.29208ZM24 25.7077L24.8757 26.9255L27.248 25.2196L24.4791 24.2863L24 25.7077ZM18.5314 15.9999C18.5314 12.1512 21.0194 8.87968 24.4791 7.7135L23.5208 4.87066C18.878 6.43564 15.5314 10.825 15.5314 15.9999H18.5314ZM24.4791 24.2863C21.0194 23.1201 18.5314 19.8486 18.5314 15.9999H15.5314C15.5314 21.1748 18.878 25.5641 23.5208 27.1291L24.4791 24.2863ZM23.1242 24.4899C21.4093 25.7231 19.3073 26.449 17.0314 26.449V29.449C19.9565 29.449 22.6675 28.5134 24.8757 26.9255L23.1242 24.4899ZM17.0314 26.449C11.2605 26.449 6.58228 21.7708 6.58228 15.9999H3.58228C3.58228 23.4276 9.60364 29.449 17.0314 29.449V26.449ZM6.58228 15.9999C6.58228 10.229 11.2605 5.55078 17.0314 5.55078V2.55078C9.60364 2.55078 3.58228 8.57215 3.58228 15.9999H6.58228ZM17.0314 5.55078C19.3073 5.55078 21.4093 6.2767 23.1242 7.5099L24.8757 5.07426C22.6675 3.48632 19.9565 2.55078 17.0314 2.55078V5.55078Z" fill="currentColor" mask="url(#path-1-inside-1_1_3275)"/>
</svg>
