<svg width="40" height="40" viewBox="0 0 40 40" fill="none" xmlns="http://www.w3.org/2000/svg">
<path d="M17.8014 27.4171C19.9172 27.4171 21.8927 26.7354 23.4987 25.5992L29.5401 31.5834C29.8205 31.8611 30.1901 32 30.5725 32C31.401 32 32 31.3688 32 30.5608C32 30.182 31.8725 29.8285 31.5921 29.5508L25.589 23.5918C26.8508 21.9506 27.6028 19.9179 27.6028 17.7086C27.6028 12.3682 23.1928 8 17.8014 8C12.3972 8 8 12.3682 8 17.7086C8 23.0489 12.3972 27.4171 17.8014 27.4171ZM17.8014 25.3214C13.5826 25.3214 10.1158 21.8748 10.1158 17.7086C10.1158 13.5423 13.5826 10.0957 17.8014 10.0957C22.0074 10.0957 25.487 13.5423 25.487 17.7086C25.487 21.8748 22.0074 25.3214 17.8014 25.3214Z" fill="currentColor"/>
</svg>
