<svg width="40" height="40" viewBox="0 0 40 40" fill="none" xmlns="http://www.w3.org/2000/svg">
<path d="M20.8501 29.9891C21.3842 29.9891 21.8202 29.7711 22.3434 29.2807L30.9428 21.1608C31.357 20.7684 31.4986 20.3542 31.4986 19.9946C31.4986 19.624 31.3679 19.2207 30.9428 18.8174L22.3434 10.7738C21.7657 10.2289 21.406 10 20.8719 10C20.109 10 19.564 10.5995 19.564 11.3297V15.4496H19.248C11.4114 15.4496 8 20.4741 8 28.5286C8 29.466 8.53406 29.9891 9.12261 29.9891C9.58038 29.9891 10.0817 29.8801 10.4632 29.1826C12.3597 25.6186 15.03 24.5504 19.248 24.5504H19.564V28.7139C19.564 29.4441 20.109 29.9891 20.8501 29.9891ZM21.4714 27.6458C21.3842 27.6458 21.3188 27.5803 21.3188 27.4823V23.2643C21.3188 23.0136 21.2098 22.9046 20.9591 22.9046H19.4987C14.3215 22.9046 11.0191 24.703 9.73297 27.4387C9.70027 27.515 9.67848 27.5477 9.62398 27.5477C9.58038 27.5477 9.54768 27.515 9.54768 27.4278C9.76567 22.2834 12.0109 17.0954 19.4987 17.0954H20.9591C21.2098 17.0954 21.3188 16.9864 21.3188 16.7357V12.4087C21.3188 12.3215 21.3842 12.2561 21.4823 12.2561C21.5477 12.2561 21.6131 12.2997 21.6676 12.3433L29.4278 19.7874C29.5041 19.8638 29.5367 19.9292 29.5367 19.9946C29.5367 20.0599 29.515 20.1144 29.4278 20.2017L21.6567 27.5477C21.6022 27.6131 21.5368 27.6458 21.4714 27.6458Z" fill="currentColor"/>
</svg>
