<svg width="32" height="32" viewBox="0 0 32 32" fill="none" xmlns="http://www.w3.org/2000/svg">
<path d="M29.3323 16.307C29.3323 15.4007 29.2574 14.4894 29.0974 13.5978H16.2676V18.7321H23.6146C23.3098 20.388 22.3302 21.8528 20.8957 22.7836V26.115H25.279C27.8529 23.7928 29.3323 20.3635 29.3323 16.307Z" fill="#4285F4"/>
<path d="M16.2676 29.3337C19.9361 29.3337 23.0299 28.153 25.2839 26.115L20.9007 22.7836C19.6812 23.5968 18.1069 24.0573 16.2726 24.0573C12.724 24.0573 9.71527 21.7107 8.63571 18.5557H4.11255V21.9899C6.42161 26.4922 11.1247 29.3337 16.2676 29.3337Z" fill="#34A853"/>
<path d="M8.63073 18.5556C8.06096 16.8997 8.06096 15.1067 8.63073 13.4508V10.0165H4.11257C2.18335 13.7839 2.18334 18.2225 4.11255 21.9899L8.63073 18.5556Z" fill="#FBBC04"/>
<path d="M16.2676 7.94421C18.2068 7.91482 20.081 8.63008 21.4855 9.94304L25.3689 6.13645C22.9099 3.87307 19.6462 2.6287 16.2676 2.66789C11.1247 2.66789 6.42163 5.50936 4.11257 10.0165L8.63073 13.4508C9.70529 10.2909 12.719 7.94421 16.2676 7.94421Z" fill="#EA4335"/>
</svg>
