<svg width="20" height="20" viewBox="0 0 20 20" fill="none" xmlns="http://www.w3.org/2000/svg">
<g id="arrow">
<path id="Vector" d="M9.70603 12.4648L9.70611 12.4648C9.78158 12.5366 9.89169 12.5832 10.014 12.5833L9.70603 12.4648ZM9.70603 12.4648L5.03936 8.02941L5.03944 8.02933M9.70603 12.4648L5.03944 8.02933M5.03944 8.02933L5.02986 8.02053M5.03944 8.02933L5.02986 8.02053M5.02986 8.02053C4.99158 7.98539 4.9633 7.94547 4.94466 7.90422C4.92607 7.86309 4.9169 7.82038 4.91652 7.77824C4.91613 7.73611 4.92451 7.69337 4.94227 7.65213C4.96007 7.61078 4.98747 7.57061 5.0249 7.53503C5.06241 7.49938 5.10911 7.46925 5.16321 7.44821C5.21735 7.42716 5.27659 7.41614 5.33711 7.41664C5.39764 7.41714 5.45657 7.42913 5.51016 7.45101C5.56369 7.47286 5.60962 7.50364 5.64629 7.53972L5.64621 7.5398M5.02986 8.02053L5.64621 7.5398M5.64621 7.5398L5.65565 7.54877M5.64621 7.5398L5.65565 7.54877M5.65565 7.54877L9.49749 11.2002L10.0142 11.6913M5.65565 7.54877L10.0142 11.6913M10.0142 11.6913L10.5309 11.2002M10.0142 11.6913L10.5309 11.2002M10.5309 11.2002L14.3667 7.55442C14.443 7.48616 14.5513 7.44291 14.6704 7.44389C14.7915 7.44489 14.9001 7.49131 14.9748 7.56228C15.0482 7.63208 15.0824 7.7183 15.0832 7.79994C15.0839 7.88023 15.0524 7.96513 14.983 8.03506L10.3223 12.4648L10.3222 12.4648M10.5309 11.2002L10.3222 12.4648M10.3222 12.4648C10.2468 12.5366 10.1367 12.5832 10.0143 12.5833L10.3222 12.4648Z" fill="#070707" stroke="#070707" stroke-width="1.5"/>
</g>
</svg>
