<svg width="20" height="20" viewBox="0 0 20 20" fill="none" xmlns="http://www.w3.org/2000/svg">
<g id="arrow">
<path id="Vector" d="M14.3613 12.4515L14.3614 12.4515C14.4367 12.5232 14.5463 12.5696 14.668 12.5697L14.3613 12.4515ZM14.3613 12.4515L10.5241 8.79991L10.0071 8.30791M14.3613 12.4515L10.0071 8.30791M10.0071 8.30791L9.4901 8.79991M10.0071 8.30791L9.4901 8.79991M9.4901 8.79991L5.6529 12.4515L5.65282 12.4514M9.4901 8.79991L5.65282 12.4514M5.65282 12.4514L5.64354 12.4605M5.65282 12.4514L5.64354 12.4605M5.64354 12.4605C5.60696 12.4966 5.56118 12.5272 5.50789 12.549C5.45455 12.5708 5.39591 12.5828 5.33569 12.5833C5.27547 12.5838 5.21653 12.5728 5.16262 12.5518C5.10878 12.5309 5.06224 12.5008 5.02482 12.4652C4.98749 12.4297 4.9601 12.3895 4.9423 12.3481L4.25328 12.6443M5.64354 12.4605L4.25328 12.6443M4.25328 12.6443L4.94229 12.3481C4.92453 12.3068 4.91613 12.2639 4.91652 12.2216C4.9169 12.1793 4.92609 12.1365 4.94469 12.0953C4.96333 12.054 4.99159 12.0141 5.02977 11.979L5.02984 11.9791M4.25328 12.6443L5.02984 11.9791M5.02984 11.9791L5.03927 11.9701M5.02984 11.9791L5.03927 11.9701M5.03927 11.9701L9.70022 7.53468M5.03927 11.9701L9.70022 7.53468M9.70022 7.53468C9.70025 7.53465 9.70028 7.53463 9.70031 7.5346M9.70022 7.53468L9.70031 7.5346M9.70031 7.5346C9.77565 7.46297 9.88539 7.41663 10.0071 7.41663M9.70031 7.5346L10.0071 7.41663M10.0071 7.41663C10.1289 7.41663 10.2386 7.46297 10.3139 7.5346M10.0071 7.41663L10.3139 7.5346M10.3139 7.5346C10.314 7.53463 10.314 7.53465 10.314 7.53468M10.3139 7.5346L10.314 7.53468M10.314 7.53468L14.9749 11.97M10.314 7.53468L14.9749 11.97M14.9749 11.97C15.0304 12.0229 15.0636 12.0855 15.0767 12.1479C15.0896 12.21 15.0833 12.2748 15.0568 12.3358C15.03 12.3973 14.982 12.4559 14.9129 12.4999C14.8436 12.544 14.7584 12.5696 14.6683 12.5697L14.9749 11.97Z" fill="#070707" stroke="#070707" stroke-width="1.5"/>
</g>
</svg>
