<svg width="25" height="24" viewBox="0 0 25 24" fill="none" xmlns="http://www.w3.org/2000/svg">
<path d="M12.0777 23.2483H12.0762C11.8402 23.2483 11.691 23.1812 11.5737 23.0721L11.0629 23.6212L11.5737 23.0721C11.4597 22.966 11.4075 22.8523 11.4075 22.6784V13.1202V12.8445L11.229 12.6345L1.29477 0.946305C1.26897 0.913351 1.25725 0.891313 1.25221 0.879708C1.25466 0.873207 1.25918 0.86287 1.26726 0.848557C1.29736 0.79521 1.31988 0.781346 1.32958 0.775972C1.34219 0.768981 1.38324 0.75 1.48005 0.75H23.52C23.6168 0.75 23.6578 0.768981 23.6704 0.775971C23.6801 0.78131 23.7024 0.795031 23.7322 0.847544C23.7408 0.863021 23.7454 0.874057 23.7479 0.880816C23.7429 0.892087 23.7314 0.91336 23.7063 0.945098L13.771 12.6362L13.5925 12.8463V13.1219V22.6818C13.5925 22.8539 13.5408 22.9672 13.4263 23.0738C13.3091 23.1828 13.16 23.2499 12.9243 23.25C12.9241 23.25 12.9239 23.25 12.9238 23.25L12.0777 23.2483ZM1.24873 0.869942C1.24876 0.869945 1.24893 0.87051 1.24914 0.871632L1.24873 0.869942ZM23.7514 0.871204C23.7514 0.871203 23.7513 0.871813 23.7509 0.87304L23.7514 0.871204Z" stroke="currentColor" stroke-width="1.5"/>
</svg>
