<svg width="20" height="20" viewBox="0 0 20 20" fill="none" xmlns="http://www.w3.org/2000/svg">
<g id="Interface, Essential/question-mark">
<path id="Vector" d="M10 2.5C8.51664 2.5 7.06659 2.93987 5.83323 3.76398C4.59986 4.58809 3.63856 5.75943 3.07091 7.12987C2.50325 8.50032 2.35472 10.0083 2.64411 11.4632C2.9335 12.918 3.64781 14.2544 4.6967 15.3033C5.7456 16.3522 7.08197 17.0665 8.53683 17.3559C9.99168 17.6453 11.4997 17.4967 12.8701 16.9291C14.2406 16.3614 15.4119 15.4001 16.236 14.1668C17.0601 12.9334 17.5 11.4834 17.5 10C17.4978 8.01154 16.7069 6.10516 15.3009 4.69911C13.8948 3.29306 11.9885 2.50218 10 2.5ZM10 14.5C9.85167 14.5 9.70666 14.456 9.58332 14.3736C9.45999 14.2912 9.36386 14.1741 9.30709 14.037C9.25033 13.9 9.23547 13.7492 9.26441 13.6037C9.29335 13.4582 9.36478 13.3246 9.46967 13.2197C9.57456 13.1148 9.7082 13.0433 9.85368 13.0144C9.99917 12.9855 10.15 13.0003 10.287 13.0571C10.4241 13.1139 10.5412 13.21 10.6236 13.3333C10.706 13.4567 10.75 13.6017 10.75 13.75C10.75 13.9489 10.671 14.1397 10.5303 14.2803C10.3897 14.421 10.1989 14.5 10 14.5ZM10.75 11.0995V11.5C10.75 11.6989 10.671 11.8897 10.5303 12.0303C10.3897 12.171 10.1989 12.25 10 12.25C9.80109 12.25 9.61032 12.171 9.46967 12.0303C9.32902 11.8897 9.25 11.6989 9.25 11.5V10.4365C9.25 10.3355 9.27039 10.2356 9.30995 10.1426C9.34952 10.0497 9.40744 9.96574 9.48025 9.89575C9.55251 9.82533 9.63845 9.77049 9.73275 9.73463C9.82705 9.69876 9.92771 9.68264 10.0285 9.68725C10.1735 9.6925 10.3181 9.66841 10.4535 9.6164C10.589 9.5644 10.7125 9.48557 10.8167 9.38463C10.921 9.28369 11.0037 9.16274 11.0601 9.02902C11.1164 8.89531 11.1451 8.75159 11.1445 8.6065C11.156 8.30813 11.0486 8.0174 10.8458 7.79826C10.6429 7.57913 10.3614 7.44953 10.063 7.438C9.76463 7.42646 9.4739 7.53392 9.25477 7.73674C9.03563 7.93956 8.90604 8.22113 8.8945 8.5195C8.89213 8.61833 8.86997 8.71568 8.82932 8.80579C8.78868 8.89591 8.73038 8.97696 8.65787 9.04415C8.58536 9.11135 8.50011 9.16332 8.40717 9.197C8.31423 9.23069 8.21548 9.24539 8.11675 9.24025C7.91819 9.23244 7.73084 9.14615 7.59585 9.00033C7.46085 8.85451 7.38925 8.66107 7.39675 8.4625C7.41805 7.98021 7.57193 7.51313 7.84147 7.11263C8.11102 6.71212 8.48579 6.39371 8.92458 6.1924C9.36336 5.99109 9.84916 5.91468 10.3286 5.97157C10.808 6.02847 11.2624 6.21646 11.6419 6.51488C12.0213 6.8133 12.3112 7.21059 12.4795 7.66306C12.6478 8.11553 12.6881 8.60565 12.5959 9.07953C12.5037 9.55341 12.2826 9.99268 11.957 10.3491C11.6313 10.7054 11.2137 10.9651 10.75 11.0995Z" fill="#070707"/>
</g>
</svg>
