<svg width="32" height="32" viewBox="0 0 32 32" fill="none" xmlns="http://www.w3.org/2000/svg">
<g clip-path="url(#clip0_1_3282)">
<path d="M15.6797 7.55859C16.2305 7.55859 16.6875 7.10156 16.6875 6.53906V4.01953C16.6875 3.45703 16.2305 3 15.6797 3C15.1172 3 14.6602 3.45703 14.6602 4.01953V6.53906C14.6602 7.10156 15.1172 7.55859 15.6797 7.55859ZM21.4219 9.96094C21.8203 10.3477 22.4648 10.3594 22.8633 9.96094L24.6562 8.16797C25.043 7.78125 25.043 7.125 24.6562 6.72656C24.2695 6.33984 23.625 6.33984 23.2266 6.72656L21.4219 8.53125C21.0352 8.92969 21.0352 9.57422 21.4219 9.96094ZM23.8008 15.7148C23.8008 16.2656 24.2695 16.7227 24.8203 16.7227H27.3398C27.8906 16.7227 28.3477 16.2656 28.3477 15.7148C28.3477 15.1641 27.8906 14.6953 27.3398 14.6953H24.8203C24.2695 14.6953 23.8008 15.1641 23.8008 15.7148ZM21.4219 21.4688C21.0352 21.8672 21.0352 22.5117 21.4219 22.8984L23.2266 24.7148C23.625 25.0898 24.2695 25.0781 24.6562 24.7031C25.043 24.3047 25.043 23.6602 24.6562 23.2734L22.8516 21.4688C22.4648 21.0938 21.8203 21.0938 21.4219 21.4688ZM15.6797 23.8711C15.1172 23.8711 14.6602 24.3281 14.6602 24.8789V27.4102C14.6602 27.9609 15.1172 28.418 15.6797 28.418C16.2305 28.418 16.6875 27.9609 16.6875 27.4102V24.8789C16.6875 24.3281 16.2305 23.8711 15.6797 23.8711ZM9.92578 21.4688C9.52734 21.0938 8.87109 21.0938 8.48438 21.4688L6.69141 23.2617C6.30469 23.6484 6.30469 24.293 6.67969 24.6914C7.06641 25.0664 7.72266 25.0781 8.12109 24.7031L9.91406 22.8984C10.3008 22.5117 10.3008 21.8672 9.92578 21.4688ZM7.54688 15.7148C7.54688 15.1641 7.07812 14.6953 6.52734 14.6953H4.00781C3.45703 14.6953 3 15.1641 3 15.7148C3 16.2656 3.45703 16.7227 4.00781 16.7227H6.52734C7.07812 16.7227 7.54688 16.2656 7.54688 15.7148ZM9.91406 9.96094C10.3008 9.58594 10.3008 8.91797 9.92578 8.53125L8.13281 6.72656C7.74609 6.35156 7.08984 6.33984 6.70312 6.72656C6.31641 7.125 6.31641 7.78125 6.69141 8.15625L8.48438 9.96094C8.87109 10.3477 9.51562 10.3477 9.91406 9.96094Z" fill="currentColor"/>
<circle cx="16" cy="16" r="6.25" fill="currentColor" stroke="currentColor" stroke-width="1.5"/>
</g>
<defs>
<clipPath id="clip0_1_3282">
<rect width="25.3477" height="25.4414" fill="currentColor" transform="translate(3 3)"/>
</clipPath>
</defs>
</svg>
