<svg width="16" height="16" viewBox="0 0 16 16" fill="none" xmlns="http://www.w3.org/2000/svg">
<path d="M14.551 8.52228C14.551 11.8481 11.8535 14.5446 8.5255 14.5446C5.19748 14.5446 2.5 11.8481 2.5 8.52228C2.5 5.1965 5.19748 2.5 8.5255 2.5C11.8535 2.5 14.551 5.1965 14.551 8.52228Z" stroke="currentColor"/>
<path d="M5.179 9.06603H8.60933C8.8656 9.06603 9.06933 8.88551 9.06933 8.64481V4.58948C9.06933 4.35482 8.8656 4.17432 8.60933 4.17432C8.35306 4.17432 8.15589 4.35482 8.15589 4.58948V8.22964H5.179C4.91614 8.22964 4.71899 8.41017 4.71899 8.64481C4.71899 8.88551 4.91614 9.06603 5.179 9.06603Z" fill="currentColor"/>
</svg>
